# xmcd CD database file
#
# Track frame offsets:
#	150
#	30637
#	58574
#	82386
#	106536
#	129073
#	154423
#	183860
#	213635
#	238422
#	249259
#	271646
#	297108
#
# Disc length: 4340 seconds
#
# Revision: 0
# Processed by: cddbd v1.5PL3 Copyright (c) Steve Scherf et al.
# Submitted via: CDex 1.51
#
DISCID=ae10f20d
DTITLE=Rainer Schoenfeld - Good Move Vol. II
DYEAR=2003
DGENRE=Jazz
TTITLE0=You Don't Know What Love Is >2
TTITLE1=17<Sess>13
TTITLE2=Blues In Bloom
TTITLE3=17<Sess>18
TTITLE4=Wlitch Hunt
TTITLE5=17<Sess>30
TTITLE6=You Don't Know What Love Is >1
TTITLE7=Fi Fo Fum
TTITLE8=Django
TTITLE9=19<Sess>10
TTITLE10=Listen Please
TTITLE11=Sunny Moon
TTITLE12=31<Sess>12
EXTD=YEAR: 2003
EXTT0=
EXTT1=
EXTT2=
EXTT3=
EXTT4=
EXTT5=
EXTT6=
EXTT7=
EXTT8=
EXTT9=
EXTT10=
EXTT11=
EXTT12=
PLAYORDER=
